# xmcd
# Copyright (C) 1995-1998 Ti Kan
#
# Track frame offsets:
#       150
#       9212
#       28173
#       45739
#       54107
#       74892
#       82543
#       95496
#       108592
#       119409
#       149565
#
# Disc length: 2468 seconds
#
# Revision: 0
# Processed by: cddbd v1.5.2PL0 Copyright (c) Steve Scherf et al.
# Submitted via: CD-Import v1.0
#
DISCID=9009a20b
DTITLE=Mando Diao - Never Seen The Light Of Day
DYEAR=2007
DGENRE=
TTITLE0=If I Don't Live Today, Then I Might Be Tomorrow
TTITLE1=Never Seen The Light Of Day
TTITLE2=Gold
TTITLE3=I Don't Care What People Say
TTITLE4=Mexican Hardcore
TTITLE5=Madam Cowboy
TTITLE6=Train Of Fire
TTITLE7=Not A Perfect Day
TTITLE8=Misty Mountains
TTITLE9=One Blood
TTITLE10=Dalarna
EXTD=
EXTT0=
EXTT1=
EXTT2=
EXTT3=
EXTT4=
EXTT5=
EXTT6=
EXTT7=
EXTT8=
EXTT9=
EXTT10=
PLAYORDER=
